<svg viewBox="0 0 447 108" xmlns="http://www.w3.org/2000/svg">
<path fill-rule="evenodd" clip-rule="evenodd" d="M13.1966 53.6655C23.9561 82.9935 47.592 93.0139 60.3808 94.93L91.1835 53.8147L58.7764 12.8429C53.2945 13.7359 44.8969 17.0162 36.3618 23.2856C26.8642 30.2619 17.9193 40.4304 13.1966 53.6655ZM28.9943 13.1156C40.3883 4.74627 52.9152 0 61.5876 0H64.6001L107 53.6054L66.2487 108L62.9391 107.832C47.2645 107.035 14.008 95.3217 0.662426 55.7332L0 53.7682L0.628092 51.7917C6.11777 34.5173 17.3913 21.6385 28.9943 13.1156Z" fill="url(#paint0_linear_471_157)"/>
<path d="M447.004 82H434.66V76.4922H434.504C431.691 80.8151 427.564 82.9766 422.121 82.9766C417.121 82.9766 413.098 81.2188 410.051 77.7031C407.004 74.1615 405.48 69.2266 405.48 62.8984C405.48 56.2839 407.16 50.9844 410.52 47C413.879 43.0156 418.28 41.0234 423.723 41.0234C428.879 41.0234 432.473 42.8724 434.504 46.5703H434.66V22.7812H447.004V82ZM434.895 62.5469V59.5391C434.895 56.9349 434.139 54.7734 432.629 53.0547C431.118 51.3359 429.152 50.4766 426.73 50.4766C423.996 50.4766 421.861 51.5573 420.324 53.7188C418.788 55.8542 418.02 58.7969 418.02 62.5469C418.02 66.0625 418.762 68.7708 420.246 70.6719C421.73 72.5729 423.788 73.5234 426.418 73.5234C428.918 73.5234 430.949 72.5208 432.512 70.5156C434.1 68.5104 434.895 65.8542 434.895 62.5469Z" fill="#0F172A"/>
<path d="M399.66 82H387.355V59.7734C387.355 53.5755 385.142 50.4766 380.715 50.4766C378.579 50.4766 376.822 51.2969 375.441 52.9375C374.061 54.5781 373.371 56.6615 373.371 59.1875V82H361.027V42H373.371V48.3281H373.527C376.47 43.4583 380.754 41.0234 386.379 41.0234C395.233 41.0234 399.66 46.5182 399.66 57.5078V82Z" fill="#0F172A"/>
<path d="M346.141 35.6719C344.057 35.6719 342.352 35.0599 341.023 33.8359C339.695 32.5859 339.031 31.0625 339.031 29.2656C339.031 27.4167 339.695 25.9062 341.023 24.7344C342.352 23.5625 344.057 22.9766 346.141 22.9766C348.25 22.9766 349.956 23.5625 351.258 24.7344C352.586 25.9062 353.25 27.4167 353.25 29.2656C353.25 31.1406 352.586 32.6771 351.258 33.875C349.956 35.0729 348.25 35.6719 346.141 35.6719ZM352.234 82H339.891V42H352.234V82Z" fill="#0F172A"/>
<path d="M335.594 42L324.07 82H311.102L305.203 58.5625C304.812 57 304.591 55.2943 304.539 53.4453H304.305C304.122 55.4766 303.862 57.1302 303.523 58.4062L297.195 82H284.383L273.094 42H285.672L291.18 68.0938C291.44 69.3177 291.635 70.8021 291.766 72.5469H292C292.13 70.724 292.365 69.1875 292.703 67.9375L299.578 42H311.336L317.508 68.0938C317.664 68.7448 317.846 70.2552 318.055 72.625H318.328C318.458 71.1146 318.667 69.6042 318.953 68.0938L324.148 42H335.594Z" fill="#0F172A"/>
<path d="M270.75 53.1328C269.266 52.3255 267.534 51.9219 265.555 51.9219C262.872 51.9219 260.776 52.9115 259.266 54.8906C257.755 56.8438 257 59.513 257 62.8984V82H244.656V42H257V49.4219H257.156C259.109 44.0052 262.625 41.2969 267.703 41.2969C269.005 41.2969 270.021 41.4531 270.75 41.7656V53.1328Z" fill="#0F172A"/>
<path d="M238.91 65.5156H212.816C213.233 71.3229 216.892 74.2266 223.793 74.2266C228.194 74.2266 232.061 73.1849 235.395 71.1016V80.0078C231.697 81.987 226.892 82.9766 220.98 82.9766C214.522 82.9766 209.509 81.1927 205.941 77.625C202.374 74.0312 200.59 69.0312 200.59 62.625C200.59 55.9844 202.517 50.724 206.371 46.8438C210.225 42.9635 214.965 41.0234 220.59 41.0234C226.423 41.0234 230.928 42.7552 234.105 46.2188C237.309 49.6823 238.91 54.3828 238.91 60.3203V65.5156ZM227.465 57.9375C227.465 52.2083 225.147 49.3438 220.512 49.3438C218.533 49.3438 216.814 50.1641 215.355 51.8047C213.923 53.4453 213.051 55.4896 212.738 57.9375H227.465Z" fill="#0F172A"/>
<path d="M167.465 77.3516H167.309V82H154.965V22.7812H167.309V48.0156H167.465C170.512 43.3542 174.848 41.0234 180.473 41.0234C185.629 41.0234 189.6 42.7943 192.387 46.3359C195.173 49.8776 196.566 54.7214 196.566 60.8672C196.566 67.5339 194.939 72.8854 191.684 76.9219C188.428 80.9583 184.079 82.9766 178.637 82.9766C173.715 82.9766 169.991 81.1016 167.465 77.3516ZM167.113 60.4766V64.5781C167.113 67.1562 167.855 69.2917 169.34 70.9844C170.824 72.6771 172.725 73.5234 175.043 73.5234C177.855 73.5234 180.03 72.4427 181.566 70.2812C183.129 68.0938 183.91 65.0078 183.91 61.0234C183.91 57.7161 183.194 55.138 181.762 53.2891C180.355 51.4141 178.337 50.4766 175.707 50.4766C173.233 50.4766 171.176 51.401 169.535 53.25C167.921 55.099 167.113 57.5078 167.113 60.4766Z" fill="#0F172A"/>
<path d="M151.602 42L135.352 85.2031C131.445 95.5938 125.56 100.789 117.695 100.789C114.701 100.789 112.24 100.451 110.312 99.7734V89.9297C111.953 90.8932 113.737 91.375 115.664 91.375C118.841 91.375 121.055 89.8776 122.305 86.8828L124.414 81.9219L108.164 42H121.836L129.297 66.3359C129.766 67.8464 130.13 69.6302 130.391 71.6875H130.547C130.781 70.1771 131.211 68.4193 131.836 66.4141L139.375 42H151.602Z" fill="#0F172A"/>
<path d="M106.562 80.0078C102.474 81.987 97.1354 82.9766 90.5469 82.9766C81.9531 82.9766 75.1953 80.4505 70.2734 75.3984C65.3516 70.3464 62.8906 63.6146 62.8906 55.2031C62.8906 46.2448 65.651 38.9792 71.1719 33.4062C76.7188 27.8333 83.9062 25.0469 92.7344 25.0469C98.2031 25.0469 102.812 25.737 106.562 27.1172V39.2656C102.812 37.026 98.5417 35.9062 93.75 35.9062C88.4896 35.9062 84.2448 37.5599 81.0156 40.8672C77.7865 44.1745 76.1719 48.6536 76.1719 54.3047C76.1719 59.7214 77.6953 64.0443 80.7422 67.2734C83.7891 70.4766 87.8906 72.0781 93.0469 72.0781C97.9688 72.0781 102.474 70.8802 106.562 68.4844V80.0078Z" fill="#0F172A"/>
<defs><linearGradient id="paint0_linear_471_157" x1="106.679" y1="53.71" x2="3.75042" y2="80.71" gradientUnits="userSpaceOnUse">
<stop stop-color="#F97316"/><stop offset="1" stop-color="#a3e635"/></linearGradient></defs>
</svg>